<svg xmlns="http://www.w3.org/2000/svg" viewBox="0 0 415 205" width="415" height="205" role="img" aria-label="Most Used Languages (non-fork repos)"><title>Most Used Languages (non-fork repos)</title><style>
.bg{fill:#ffffff;stroke:#d0d7de}.t{fill:#1f2328;font:600 15px 'Segoe UI',Ubuntu,sans-serif}
.l{fill:#1f2328;font:13px 'Segoe UI',Ubuntu,sans-serif}.m{fill:#656d76;font:11px 'Segoe UI',Ubuntu,sans-serif}
.f{fill:#0969da}.s{stroke:#0969da;fill:none;stroke-width:2}.g{stroke:#d0d7de}.ar{fill:#0969da;fill-opacity:.15}
@media (prefers-color-scheme: dark){
.bg{fill:#0d1117;stroke:#30363d}.t{fill:#e6edf3}.l{fill:#e6edf3}.m{fill:#8b949e}
.f{fill:#58a6ff}.s{stroke:#58a6ff}.g{stroke:#30363d}.ar{fill:#58a6ff;fill-opacity:.18}}
</style><rect class="bg" x=".5" y=".5" width="414" height="204" rx="8"/><text class="t" x="20" y="30">Most Used Languages (non-fork repos)</text><clipPath id="c"><rect x="20" y="44" width="375" height="10" rx="5"/></clipPath><g clip-path="url(#c)"><rect x="20.00" y="44" width="179.88" height="10" fill="#3178c6"/><rect x="199.88" y="44" width="88.96" height="10" fill="#f1e05a"/><rect x="288.84" y="44" width="62.99" height="10" fill="#b07219"/><rect x="351.83" y="44" width="37.67" height="10" fill="#3572A5"/><rect x="389.50" y="44" width="4.75" height="10" fill="#663399"/><rect x="394.25" y="44" width="0.44" height="10" fill="#e34c26"/></g><circle cx="25" cy="78" r="5" fill="#3178c6"/><text class="l" x="36" y="82">TypeScript</text><text class="m" x="195" y="82" text-anchor="end">48.0%</text><circle cx="215" cy="78" r="5" fill="#f1e05a"/><text class="l" x="226" y="82">JavaScript</text><text class="m" x="385" y="82" text-anchor="end">23.7%</text><circle cx="25" cy="106" r="5" fill="#b07219"/><text class="l" x="36" y="110">Java</text><text class="m" x="195" y="110" text-anchor="end">16.8%</text><circle cx="215" cy="106" r="5" fill="#3572A5"/><text class="l" x="226" y="110">Python</text><text class="m" x="385" y="110" text-anchor="end">10.0%</text><circle cx="25" cy="134" r="5" fill="#663399"/><text class="l" x="36" y="138">CSS</text><text class="m" x="195" y="138" text-anchor="end">1.3%</text><circle cx="215" cy="134" r="5" fill="#e34c26"/><text class="l" x="226" y="138">HTML</text><text class="m" x="385" y="138" text-anchor="end">0.1%</text></svg>